<svg width="44" height="36" viewBox="0 0 44 36" fill="none" xmlns="http://www.w3.org/2000/svg">
<g clip-path="url(#clip0_713_27953)">
<path fill-rule="evenodd" clip-rule="evenodd" d="M22.0539 6.74182C24.8525 3.94007 28.1213 2.66593 31.9061 3.15953C35.8126 3.66902 39.1386 6.25085 40.3211 9.73069C41.231 12.4083 40.8533 15.4073 39.6349 18.142C37.7398 22.3953 32.1397 28.4411 22 32.6679C11.8602 28.4411 6.26017 22.3953 4.36509 18.142C3.14663 15.4073 2.76892 12.4083 3.67881 9.73069C4.86129 6.25085 8.18734 3.66902 12.0938 3.15953C15.8787 2.66591 19.1476 3.94015 21.9463 6.74206C21.9514 6.74719 22 6.79598 22 6.79597C22 6.79601 22.0493 6.74645 22.054 6.74182H22.0539ZM22 2.76835C15.8873 -1.6669 6.30673 -0.509607 1.90125 6.15623C0.438512 8.36948 -0.110876 10.9427 0.0182266 13.4974C0.242179 17.9288 2.3113 21.8023 5.35055 25.145C9.44298 29.6461 15.3594 33.1831 21.8706 35.8226C21.8796 35.8262 21.9548 35.8564 22 35.875C22.0396 35.8596 22.1089 35.8307 22.1302 35.822C28.6078 33.1826 34.5572 29.6453 38.6494 25.145C41.6888 21.8025 43.7577 17.9288 43.9817 13.4974C44.1108 10.9427 43.5614 8.36946 42.0987 6.15622C37.6932 -0.509615 28.1126 -1.66691 22 2.76834V2.76835Z" fill="black"/>
<path fill-rule="evenodd" clip-rule="evenodd" d="M21.8419 19.1305L19.0591 17.8553C18.0919 19.1591 17.3881 20.0415 15.3553 19.5266C13.7597 19.1224 13.2874 17.5056 13.2267 16.1494C13.1439 14.297 13.8444 12.1575 16.2378 12.2719C17.7671 12.345 18.4187 13.1788 18.7669 13.9284L21.8053 12.4884C20.3087 9.84881 16.8013 8.95109 13.8283 9.6867C10.6648 10.4695 9.06244 13.1598 9.11862 16.0612C9.17605 19.0271 10.716 21.589 14.0241 22.2577C15.6371 22.5837 17.3934 22.5079 18.8871 21.8156C20.043 21.2798 21.3273 20.2456 21.8419 19.1304V19.1305ZM34.9597 19.1305L32.177 17.8553C31.2097 19.1591 30.506 20.0415 28.4732 19.5266C26.8775 19.1224 26.4052 17.5056 26.3446 16.1494C26.2617 14.297 26.9623 12.1575 29.3556 12.2719C30.8849 12.345 31.5365 13.1788 31.8848 13.9284L34.9232 12.4884C33.4265 9.84881 29.9192 8.95109 26.9462 9.6867C23.7826 10.4695 22.1803 13.1598 22.2365 16.0612C22.2939 19.0271 23.8339 21.589 27.142 22.2577C28.755 22.5837 30.5113 22.5079 32.0049 21.8156C33.1609 21.2798 34.4452 20.2456 34.9597 19.1304V19.1305Z" fill="black"/>
</g>
<defs>
<clipPath id="clip0_713_27953">
<rect width="44" height="35.75" fill="white" transform="translate(0 0.125)"/>
</clipPath>
</defs>
</svg>
